<svg version="1.2" xmlns="http://www.w3.org/2000/svg" viewBox="0 0 1168 312" width="449" height="120">
	<style>
		.s0 { fill: #005cff } 
		.s1 { fill: #ffffff } 
	</style>
	<g id="logo">
		<g id="&lt;Group&gt;">
			<path id="&lt;Compound Path&gt;" class="s0" d="m366.91 183.82c-9.23 0-16.71-7.49-16.71-16.72v-86.51c0-7.39 2.93-14.48 8.16-19.7l51.17-51.18c5.22-5.22 12.31-8.16 19.7-8.16h313.23c7.39 0 14.48 2.94 19.71 8.16l51.17 51.18c5.22 5.22 8.16 12.31 8.16 19.7v86.51c0 9.23-7.48 16.72-16.72 16.72z"/>
		</g>
		<g id="&lt;Group&gt;">
			<path id="&lt;Compound Path&gt;" fill-rule="evenodd" class="s1" d="m468.36 113.01c-4.59 8.01-12.21 11.17-24.04 11.17-19.71 0-29.17-12.75-29.17-29.7v-8.93c0-19.85 9.99-29.43 27.07-29.43 18.52 0 27.07 10.77 27.07 30.74v7.49h-37.45c0.13 9.06 3.02 15.63 12.35 15.63 6.96 0 9.2-2.1 11.69-5.65zm-36.52-30.61h20.63c-0.4-8.55-3.81-12.09-10.12-12.09-6.7 0-9.86 4.6-10.51 12.09z"/>
			<path id="&lt;Compound Path&gt;" class="s1" d="m504.85 70.31h-28.51v-14.19h50.19v11.69l-28.51 39.81h29.43v14.19h-51.5v-11.69z"/>
			<path id="&lt;Compound Path&gt;" fill-rule="evenodd" class="s1" d="m538.21 137.95l29.03-83.44h16.2l29.03 83.44h-18.02l-5.08-15.84h-27.94l-5.08 15.84zm27.7-30.11h18.86l-9.43-29.39z"/>
			<path id="&lt;Compound Path&gt;" fill-rule="evenodd" class="s1" d="m617.53 137.95l29.02-83.44h16.21l29.02 83.44h-18.01l-5.08-15.84h-27.94l-5.08 15.84zm27.7-30.11h18.86l-9.43-29.39z"/>
			<path id="&lt;Compound Path&gt;" class="s1" d="m743 76.16c-3.63-5.69-7.98-8.47-16.45-8.47-7.62 0-11.73 3.51-11.73 9.19 0 6.53 5.32 9.44 16.45 12.21 17.41 4.36 25.27 10.89 25.27 25.64 0 13.67-9.19 24.31-28.78 24.31-14.63 0-24.79-3.99-32.17-13.67l12.94-8.94c4.48 5.56 9.56 8.34 18.14 8.34 9.68 0 12.94-4.23 12.94-9.31 0-5.8-3.51-9.07-17.05-12.58-16.45-4.35-24.67-12.21-24.67-26 0-13.18 8.71-23.46 28.54-23.46 13.3 0 23.34 4.47 29.27 13.67z"/>
		</g>
		<g id="&lt;Group&gt;">
			<g id="&lt;Group&gt;">
				<path id="&lt;Compound Path&gt;" class="s0" d="m52.66 242.06v11.9h-19v57.11h-14v-57.11h-19v-11.9z"/>
				<path id="&lt;Compound Path&gt;" class="s0" d="m58.56 242.06h12.8v22.9c1.9-2.5 5.4-4.8 11.2-4.8 10.1 0 18.3 4.8 18.3 19.6v31.31h-12.7v-29.31c0-7.8-2.8-10.6-8-10.6-5.9 0-8.8 3.9-8.8 10.5v29.41h-12.8z"/>
				<path id="&lt;Compound Path&gt;" fill-rule="evenodd" class="s0" d="m149.86 303.46c-3.5 6.11-9.3 8.5-18.3 8.5-15 0-22.2-9.7-22.2-22.6v-6.8c0-15.1 7.6-22.4 20.6-22.4 14.1 0 20.6 8.2 20.6 23.4v5.7h-28.5c0.1 6.9 2.3 11.9 9.4 11.9 5.3 0 7-1.6 8.9-4.3zm-27.8-23.3h15.7c-0.3-6.5-2.9-9.2-7.7-9.2-5.1 0-7.5 3.5-8 9.2z"/>
				<path id="&lt;Compound Path&gt;" fill-rule="evenodd" class="s0" d="m179.26 311.07l24-69.01h13.4l24 69.01h-14.9l-4.2-13.11h-23.1l-4.2 13.11zm22.9-24.91h15.6l-7.8-24.3z"/>
				<path id="&lt;Compound Path&gt;" class="s0" d="m245.46 242.06h12.8v50.1c0 5.4 1.6 7.9 7 7.9v11.01c-13.5 0-19.8-3.5-19.8-16.01z"/>
				<path id="&lt;Compound Path&gt;" class="s0" d="m273.96 242.06h12.8v50.1c0 5.4 1.6 7.9 7 7.9v11.01c-13.5 0-19.8-3.5-19.8-16.01z"/>
				<path id="&lt;Compound Path&gt;" class="s0" d="m300.35 276.56h25.91v11.2h-25.91z"/>
				<path id="&lt;Compound Path&gt;" class="s0" d="m335.35 242.06h13.8v12.4h-13.8zm0.5 19h12.8v50.01h-12.8z"/>
				<path id="&lt;Compound Path&gt;" class="s0" d="m360.35 261.06h12.5v4.2c1.9-2.5 5.9-5.1 11.5-5.1 10.1 0 18.31 4.8 18.31 19.6v31.31h-12.71v-29.31c0-7.8-2.8-10.6-8-10.6-5.9 0-8.8 3.9-8.8 10.5v29.41h-12.8z"/>
				<path id="&lt;Compound Path&gt;" class="s0" d="m410.85 276.56h25.9v11.2h-25.9z"/>
				<path id="&lt;Compound Path&gt;" fill-rule="evenodd" class="s0" d="m486.25 288.96c0 13.7-6.5 23-21.6 23-14.5 0-21.6-9-21.6-23v-6c0-15 7.9-22.8 21.6-22.8 13.9 0 21.6 7.8 21.6 22.8zm-12.7-0.4v-5.2c0-8-2.6-12.4-8.9-12.4-6.3 0-8.9 4.4-8.9 12.4v5.2c0 7.2 1.8 12.6 8.9 12.6 7 0 8.9-5.4 8.9-12.6z"/>
				<path id="&lt;Compound Path&gt;" class="s0" d="m494.75 261.06h12.5v4.2c1.9-2.5 5.9-5.1 11.5-5.1 10.1 0 18.3 4.8 18.3 19.6v31.31h-12.7v-29.31c0-7.8-2.8-10.6-8-10.6-5.9 0-8.8 3.9-8.8 10.5v29.41h-12.8z"/>
				<path id="&lt;Compound Path&gt;" fill-rule="evenodd" class="s0" d="m586.05 303.46c-3.5 6.11-9.3 8.5-18.3 8.5-15 0-22.2-9.7-22.2-22.6v-6.8c0-15.1 7.6-22.4 20.6-22.4 14.1 0 20.6 8.2 20.6 23.4v5.7h-28.5c0.1 6.9 2.3 11.9 9.4 11.9 5.3 0 7-1.6 8.9-4.3zm-27.8-23.3h15.7c-0.3-6.5-2.9-9.2-7.7-9.2-5.1 0-7.5 3.5-8 9.2z"/>
				<path id="&lt;Compound Path&gt;" fill-rule="evenodd" class="s0" d="m615.45 311.07l24-69.01h13.4l24 69.01h-14.9l-4.2-13.11h-23.1l-4.2 13.11zm22.9-24.91h15.6l-7.8-24.3z"/>
				<path id="&lt;Compound Path&gt;" fill-rule="evenodd" class="s0" d="m678.14 311.07l24.01-69.01h13.4l24 69.01h-14.9l-4.2-13.11h-23.11l-4.19 13.11zm22.9-24.91h15.6l-7.8-24.3z"/>
				<path id="&lt;Compound Path&gt;" class="s0" d="m781.95 259.96c-3-4.7-6.6-7-13.6-7-6.3 0-9.7 2.9-9.7 7.6 0 5.4 4.4 7.8 13.6 10.1 14.4 3.6 20.9 9 20.9 21.2 0 11.3-7.6 20.1-23.8 20.1-12.1 0-20.51-3.3-26.6-11.3l10.7-7.4c3.7 4.6 7.9 6.9 15 6.9 8 0 10.7-3.5 10.7-7.7 0-4.8-2.9-7.5-14.1-10.4-13.6-3.6-20.4-10.1-20.4-21.5 0-10.9 7.19-19.4 23.6-19.4 11 0 19.3 3.7 24.2 11.3z"/>
				<path id="&lt;Compound Path&gt;" class="s0" d="m864.45 259.96c-3-4.7-6.6-7-13.61-7-6.29 0-9.69 2.9-9.69 7.6 0 5.4 4.4 7.8 13.6 10.1 14.4 3.6 20.9 9 20.9 21.2 0 11.3-7.6 20.1-23.81 20.1-12.09 0-20.5-3.3-26.6-11.3l10.7-7.4c3.71 4.6 7.9 6.9 15.01 6.9 8 0 10.7-3.5 10.7-7.7 0-4.8-2.9-7.5-14.1-10.4-13.61-3.6-20.41-10.1-20.41-21.5 0-10.9 7.2-19.4 23.61-19.4 11 0 19.3 3.7 24.2 11.3z"/>
				<path id="&lt;Compound Path&gt;" fill-rule="evenodd" class="s0" d="m925.75 288.96c0 13.7-6.5 23-21.6 23-14.51 0-21.61-9-21.61-23v-6c0-15 7.9-22.8 21.61-22.8 13.9 0 21.6 7.8 21.6 22.8zm-12.7-0.4v-5.2c0-8-2.6-12.4-8.9-12.4-6.31 0-8.9 4.4-8.9 12.4v5.2c0 7.2 1.79 12.6 8.9 12.6 7 0 8.9-5.4 8.9-12.6z"/>
				<path id="&lt;Compound Path&gt;" class="s0" d="m934.24 242.06h12.8v50.1c0 5.4 1.6 7.9 7 7.9v11.01c-13.5 0-19.8-3.5-19.8-16.01z"/>
				<path id="&lt;Compound Path&gt;" class="s0" d="m1005.05 311.07h-12.51v-4.21c-2.1 3.4-4.8 5.1-11.4 5.1-10.1 0-18.4-5-18.4-19.7v-31.2h12.8v29.3c0 7.9 2.8 10.6 8.1 10.6 5.9 0 8.7-3.6 8.7-10.5v-29.4h12.71z"/>
				<path id="&lt;Compound Path&gt;" class="s0" d="m1011.64 261.06h6.4v-11h12.7v11h9.8v10.8h-9.8v20.9c0 5 1 7.1 5.7 7.1h4.1v11.21h-5.4c-12.1 0-17.1-3.41-17.1-16.31v-22.9h-6.4z"/>
				<path id="&lt;Compound Path&gt;" class="s0" d="m1049.44 242.06h13.8v12.4h-13.8zm0.5 19h12.8v50.01h-12.8z"/>
				<path id="&lt;Compound Path&gt;" fill-rule="evenodd" class="s0" d="m1115.84 288.96c0 13.7-6.5 23-21.6 23-14.5 0-21.6-9-21.6-23v-6c0-15 7.9-22.8 21.6-22.8 13.9 0 21.6 7.8 21.6 22.8zm-12.7-0.4v-5.2c0-8-2.6-12.4-8.9-12.4-6.3 0-8.9 4.4-8.9 12.4v5.2c0 7.2 1.8 12.6 8.9 12.6 7 0 8.9-5.4 8.9-12.6z"/>
				<path id="&lt;Compound Path&gt;" class="s0" d="m1124.34 261.06h12.5v4.2c1.9-2.5 5.9-5.1 11.5-5.1 10.1 0 18.3 4.8 18.3 19.6v31.31h-12.7v-29.31c0-7.8-2.8-10.6-8-10.6-5.9 0-8.8 3.9-8.8 10.5v29.41h-12.8z"/>
			</g>
		</g>
	</g>
</svg>